<svg xmlns="http://www.w3.org/2000/svg" width="10.856" height="13" viewBox="83.072 708 10.856 13"><g data-name="XMLID_197_"><path d="M89.857 721c.435 0 .814-.38.814-.814v-1.9h.543c.326 0 .543-.218.543-.543v-5.428h-6.514v5.428c0 .326.217.543.543.543h.543v1.9c0 .435.38.814.814.814.435 0 .814-.38.814-.814v-1.9h1.086v1.9c0 .435.38.814.814.814Z" fill="#465062" fill-rule="evenodd" data-name="XMLID_221_"/><path d="M93.114 717.743a.833.833 0 0 0 .814-.814v-3.8a.835.835 0 0 0-.814-.814.835.835 0 0 0-.813.813v3.8c0 .436.379.815.813.815Z" fill="#465062" fill-rule="evenodd" data-name="XMLID_222_"/><path d="M83.886 717.743a.833.833 0 0 0 .813-.814v-3.8a.835.835 0 0 0-.813-.814.835.835 0 0 0-.814.813v3.8c0 .436.379.815.814.815Z" fill="#465062" fill-rule="evenodd" data-name="XMLID_223_"/><path d="M91.105 708.082a.26.26 0 0 0-.379 0l-.728.726-.034.034a3.218 3.218 0 0 0-1.456-.326h-.016c-.54.001-1.024.11-1.456.326l-.034-.034-.728-.726a.26.26 0 0 0-.38 0 .26.26 0 0 0 0 .379l.706.705a2.937 2.937 0 0 0-.613.55 3.19 3.19 0 0 0-.74 1.886l-.001.022a3.126 3.126 0 0 0-.003.147h6.514c0-.05 0-.098-.003-.147l-.002-.022a3.19 3.19 0 0 0-.74-1.887 2.935 2.935 0 0 0-.612-.55l.705-.704a.26.26 0 0 0 0-.379Zm-3.963 2.74a.407.407 0 1 1 0-.814.407.407 0 0 1 0 .814Zm2.716 0a.407.407 0 1 1 0-.814.407.407 0 0 1 0 .814Z" fill="#465062" fill-rule="evenodd" data-name="XMLID_224_"/></g></svg>