<svg xmlns="http://www.w3.org/2000/svg" width="10.25" height="12" viewBox="57.875 709 10.25 12"><g data-name="apple"><g data-name="Group 2476"><g data-name="Group 2475"><path d="M65.25 709c-.64.044-1.388.454-1.824.987-.397.484-.724 1.202-.597 1.9.7.022 1.421-.397 1.84-.94.391-.504.688-1.218.58-1.947Z" fill="#465062" fill-rule="evenodd" data-name="Path 7105"/></g></g><g data-name="Group 2478"><g data-name="Group 2477"><path d="M67.778 713.026c-.615-.77-1.478-1.217-2.293-1.217-1.076 0-1.532.515-2.28.515-.77 0-1.356-.514-2.287-.514-.914 0-1.887.559-2.505 1.514-.867 1.346-.719 3.876.687 6.03.504.771 1.176 1.638 2.055 1.646.782.007 1.002-.502 2.062-.507 1.06-.006 1.26.514 2.041.505.88-.006 1.589-.967 2.092-1.738.361-.553.495-.831.775-1.455-2.035-.775-2.361-3.668-.347-4.779Z" fill="#465062" fill-rule="evenodd" data-name="Path 7106"/></g></g></g></svg>