<svg xmlns="http://www.w3.org/2000/svg" width="145.671" height="49.026" viewBox="40 649 145.671 49.026"><g data-name="section-1-btn-appstore@3x"><g data-name="Group 3"><path d="M51.606 649c-.446 0-.887 0-1.331.003-.373.002-.744.01-1.12.015-.817.01-1.632.082-2.439.216a7.839 7.839 0 0 0-5.718 4.2 8.129 8.129 0 0 0-.761 2.333 16.03 16.03 0 0 0-.218 2.455c-.013.376-.013.753-.019 1.128v28.329c.006.38.008.75.019 1.13.009.823.082 1.643.218 2.454.133.812.39 1.6.761 2.333.368.733.852 1.4 1.434 1.979a7.63 7.63 0 0 0 1.97 1.445 8.119 8.119 0 0 0 2.314.772c.807.134 1.622.207 2.44.217.817.012 1.634.017 2.45.016h122.465c.437 0 .882 0 1.32-.002.371 0 .752-.005 1.12-.013.817-.01 1.631-.083 2.437-.218.808-.14 1.591-.4 2.323-.772a7.645 7.645 0 0 0 1.968-1.445 7.834 7.834 0 0 0 1.438-1.979 8.133 8.133 0 0 0 .755-2.333c.135-.812.21-1.63.225-2.454.005-.38.005-.75.005-1.13.01-.445.01-.887.01-1.34v-25.652c0-.448 0-.895-.01-1.338 0-.376 0-.752-.005-1.128a16.662 16.662 0 0 0-.226-2.454 8.15 8.15 0 0 0-.754-2.332 7.898 7.898 0 0 0-3.406-3.432 8.199 8.199 0 0 0-2.323-.769 15.775 15.775 0 0 0-2.435-.216c-.37-.007-.75-.013-1.121-.015-.439-.003-.882-.003-1.32-.003H51.605Z" fill-rule="evenodd" data-name="Path 31"/><path d="M50.28 696.952c-.37 0-.732-.005-1.1-.013a15.343 15.343 0 0 1-2.276-.201 7.13 7.13 0 0 1-2.016-.67 6.582 6.582 0 0 1-1.701-1.247 6.52 6.52 0 0 1-1.243-1.711 7.046 7.046 0 0 1-.661-2.031 15.27 15.27 0 0 1-.202-2.299c-.008-.373-.014-.746-.019-1.119V659.35s.012-.847.02-1.096c.008-.769.075-1.536.2-2.294a7.072 7.072 0 0 1 .662-2.037 6.777 6.777 0 0 1 4.956-3.633 15.041 15.041 0 0 1 2.282-.202l1.099-.015h125.103l1.112.015c.757.01 1.513.076 2.261.2.708.122 1.393.347 2.034.671a6.833 6.833 0 0 1 2.94 2.966c.317.637.537 1.318.651 2.021.126.765.198 1.538.212 2.314.004.346.004.718.004 1.09.01.46.01.897.01 1.338v25.65c0 .446 0 .88-.01 1.318 0 .4 0 .764-.005 1.14-.014.76-.084 1.52-.208 2.271a7.067 7.067 0 0 1-.657 2.048c-.32.627-.738 1.2-1.237 1.697a6.592 6.592 0 0 1-1.704 1.254 7.102 7.102 0 0 1-2.028.674c-.754.123-1.515.189-2.277.199-.357.009-.73.013-1.093.013l-1.32.003-123.788-.002Z" fill-rule="evenodd" data-name="Path 32"/></g><path d="M70.152 673.88a6.074 6.074 0 0 1 2.87-5.088 6.155 6.155 0 0 0-4.86-2.645c-2.043-.215-4.025 1.231-5.067 1.231-1.063 0-2.666-1.21-4.393-1.174a6.464 6.464 0 0 0-5.445 3.344c-2.355 4.104-.598 10.135 1.657 13.452 1.128 1.625 2.447 3.44 4.172 3.375 1.689-.07 2.319-1.084 4.358-1.084 2.02 0 2.61 1.084 4.372 1.042 1.81-.029 2.952-1.632 4.041-3.27a13.473 13.473 0 0 0 1.849-3.791 5.862 5.862 0 0 1-3.554-5.392Zm-3.325-9.914a5.998 5.998 0 0 0 1.357-4.278 6.022 6.022 0 0 0-3.905 2.034 5.707 5.707 0 0 0-1.392 4.12 4.977 4.977 0 0 0 3.94-1.877Zm24.67 18.296h-5.763l-1.383 4.114H81.91l5.457-15.219h2.535l5.459 15.22h-2.482l-1.383-4.115Zm-5.167-1.898h4.568l-2.252-6.675h-.063l-2.253 6.675Zm20.818.464c0 3.449-1.834 5.664-4.6 5.664a3.731 3.731 0 0 1-3.467-1.94h-.053v5.495h-2.262v-14.768h2.19v1.847h.042a3.904 3.904 0 0 1 3.509-1.962c2.797 0 4.64 2.225 4.64 5.664Zm-2.325 0c0-2.245-1.154-3.723-2.913-3.723-1.73 0-2.891 1.508-2.891 3.723 0 2.237 1.162 3.734 2.89 3.734 1.76 0 2.914-1.467 2.914-3.734Zm14.455 0c0 3.449-1.833 5.664-4.599 5.664a3.731 3.731 0 0 1-3.468-1.94h-.053v5.495h-2.261v-14.768h2.19v1.847h.041a3.904 3.904 0 0 1 3.51-1.962c2.797 0 4.64 2.225 4.64 5.664Zm-2.326 0c0-2.245-1.153-3.723-2.912-3.723-1.729 0-2.89 1.508-2.89 3.723 0 2.237 1.161 3.734 2.89 3.734 1.76 0 2.912-1.467 2.912-3.734Zm10.343 1.308c.168 1.508 1.625 2.5 3.614 2.5 1.908 0 3.278-.992 3.278-2.353 0-1.18-.826-1.888-2.786-2.372l-1.959-.475c-2.776-.676-4.064-1.982-4.064-4.103 0-2.626 2.272-4.43 5.5-4.43 3.195 0 5.385 1.804 5.458 4.43h-2.283c-.138-1.52-1.384-2.436-3.207-2.436-1.822 0-3.07.928-3.07 2.277 0 1.076.798 1.71 2.746 2.194l1.666.412c3.1.738 4.39 1.993 4.39 4.219 0 2.847-2.253 4.63-5.837 4.63-3.352 0-5.615-1.741-5.76-4.494h2.314Zm14.164-9.482v2.626h2.097v1.803h-2.097v6.118c0 .95.42 1.393 1.342 1.393.249-.005.497-.022.744-.053v1.794a6.182 6.182 0 0 1-1.257.104c-2.23 0-3.1-.844-3.1-2.995v-6.36h-1.603v-1.804h1.602v-2.626h2.272Zm3.31 8.174c0-3.49 2.042-5.684 5.227-5.684 3.196 0 5.23 2.192 5.23 5.684 0 3.502-2.023 5.685-5.23 5.685-3.204 0-5.226-2.183-5.226-5.685Zm8.15 0c0-2.394-1.09-3.808-2.923-3.808s-2.922 1.424-2.922 3.808c0 2.406 1.089 3.808 2.924 3.808 1.832 0 2.923-1.402 2.923-3.808Zm4.171-5.548h2.158v1.889h.053a2.631 2.631 0 0 1 2.65-2.005c.26-.001.521.028.776.084v2.13c-.33-.1-.673-.147-1.017-.136a2.272 2.272 0 0 0-1.762.73 2.306 2.306 0 0 0-.596 1.823v6.581h-2.262V675.28Zm16.066 7.838c-.303 2.013-2.253 3.395-4.745 3.395-3.206 0-5.197-2.162-5.197-5.632 0-3.48 2.001-5.737 5.102-5.737 3.05 0 4.966 2.108 4.966 5.472v.782H165.5v.137c-.073.825.21 1.642.777 2.245a2.86 2.86 0 0 0 2.188.898 2.492 2.492 0 0 0 2.545-1.562h2.147Zm-7.647-3.313h5.51a2.679 2.679 0 0 0-.74-2.004 2.641 2.641 0 0 0-1.963-.812 2.781 2.781 0 0 0-1.987.819 2.817 2.817 0 0 0-.819 1.997ZM86.047 659.7a3.2 3.2 0 0 1 2.563 1.004c.662.703.976 1.67.855 2.63 0 2.337-1.255 3.68-3.418 3.68h-2.624V659.7h2.624Zm-1.496 6.28h1.37a2.276 2.276 0 0 0 1.82-.742c.464-.51.676-1.204.575-1.89a2.316 2.316 0 0 0-.585-1.875 2.282 2.282 0 0 0-1.81-.74h-1.37v5.246Zm6.188-1.728a2.62 2.62 0 0 1 1.216-2.47 2.583 2.583 0 0 1 2.738 0 2.62 2.62 0 0 1 1.216 2.47 2.62 2.62 0 0 1-1.215 2.475 2.583 2.583 0 0 1-2.74 0 2.62 2.62 0 0 1-1.215-2.475Zm4.058 0c0-1.197-.535-1.897-1.471-1.897-.94 0-1.47.7-1.47 1.897 0 1.206.53 1.9 1.47 1.9.936 0 1.47-.7 1.47-1.9Zm7.985 2.762h-1.122l-1.134-4.065h-.086l-1.127 4.065H98.2l-1.51-5.52h1.097l.982 4.212h.08l1.128-4.211h1.037l1.128 4.211h.084l.978-4.211h1.081l-1.504 5.519Zm2.775-5.52h1.041v.878h.082a1.64 1.64 0 0 1 1.636-.983 1.777 1.777 0 0 1 1.439.567c.369.398.537.945.458 1.484v3.573h-1.082v-3.3c0-.886-.383-1.327-1.183-1.327a1.253 1.253 0 0 0-.973.397 1.268 1.268 0 0 0-.335 1.001v3.23h-1.083v-5.52Zm6.38-2.154h1.081v7.674h-1.08v-7.674Zm2.585 4.912a2.62 2.62 0 0 1 1.217-2.47 2.583 2.583 0 0 1 2.738 0 2.62 2.62 0 0 1 1.216 2.47 2.62 2.62 0 0 1-1.215 2.475 2.583 2.583 0 0 1-2.742 0 2.62 2.62 0 0 1-1.214-2.475Zm4.057 0c0-1.197-.533-1.897-1.47-1.897-.94 0-1.47.7-1.47 1.897 0 1.206.53 1.9 1.47 1.9.937 0 1.47-.7 1.47-1.9Zm2.253 1.2c0-.992.735-1.566 2.039-1.647l1.484-.086v-.476c0-.584-.383-.913-1.121-.913-.605 0-1.023.223-1.143.614h-1.047c.11-.948.995-1.556 2.239-1.556 1.373 0 2.15.689 2.15 1.855v3.77h-1.043v-.775h-.084a1.842 1.842 0 0 1-1.647.867 1.648 1.648 0 0 1-1.278-.419 1.672 1.672 0 0 1-.549-1.235Zm3.523-.47v-.462l-1.338.086c-.756.05-1.098.309-1.098.796 0 .497.429.785 1.017.785.35.036.697-.072.964-.3.267-.226.431-.554.455-.907Zm2.499-.731c0-1.743.89-2.848 2.276-2.848a1.804 1.804 0 0 1 1.68.969h.081v-3.032h1.083v7.674h-1.037v-.872h-.086a1.9 1.9 0 0 1-1.721.963c-1.395 0-2.276-1.105-2.276-2.853Zm1.118 0c0 1.171.548 1.876 1.464 1.876.912 0 1.475-.715 1.475-1.87 0-1.15-.57-1.875-1.474-1.875-.911 0-1.465.708-1.465 1.87Zm8.477 0a2.621 2.621 0 0 1 1.216-2.47 2.583 2.583 0 0 1 2.738 0 2.62 2.62 0 0 1 1.216 2.47 2.62 2.62 0 0 1-1.214 2.476 2.583 2.583 0 0 1-2.742 0 2.62 2.62 0 0 1-1.214-2.475Zm4.058 0c0-1.196-.535-1.896-1.47-1.896-.942 0-1.47.7-1.47 1.897 0 1.206.53 1.9 1.47 1.9.935 0 1.47-.7 1.47-1.9Zm2.564-2.756h1.04v.877h.081a1.64 1.64 0 0 1 1.636-.983 1.777 1.777 0 0 1 1.439.567 1.8 1.8 0 0 1 .459 1.484v3.573h-1.082v-3.3c0-.886-.383-1.327-1.184-1.327a1.253 1.253 0 0 0-.973.397 1.268 1.268 0 0 0-.335 1.001v3.23h-1.081v-5.52Zm10.767-1.374v1.399h1.188v.917h-1.188v2.838c0 .578.237.832.775.832.139 0 .277-.01.413-.026v.908c-.194.034-.39.053-.588.055-1.203 0-1.682-.426-1.682-1.49v-3.117h-.87v-.917h.87v-1.399h1.083Zm2.667-.78h1.07v3.04h.086a1.689 1.689 0 0 1 1.672-.988 1.8 1.8 0 0 1 1.424.582c.366.397.536.939.464 1.474v3.565h-1.084v-3.295c0-.882-.407-1.328-1.172-1.328a1.275 1.275 0 0 0-1.013.376c-.266.271-.4.646-.365 1.024v3.223h-1.084v-7.674Zm11.024 6.182a2.225 2.225 0 0 1-2.375 1.597 2.482 2.482 0 0 1-1.922-.834 2.518 2.518 0 0 1-.611-2.015 2.558 2.558 0 0 1 .611-2.021 2.52 2.52 0 0 1 1.917-.862c1.524 0 2.444 1.05 2.444 2.782v.38h-3.87v.061c-.034.41.105.815.384 1.116.277.3.667.47 1.077.465a1.316 1.316 0 0 0 1.304-.669h1.04Zm-3.806-1.779h2.769a1.337 1.337 0 0 0-.36-1.016 1.318 1.318 0 0 0-.99-.413 1.391 1.391 0 0 0-1.008.413c-.267.27-.416.636-.41 1.016Z" fill="#fff" fill-rule="evenodd" data-name="Path 33"/></g></svg>