<svg xmlns="http://www.w3.org/2000/svg" width="164.732" height="48.571" viewBox="197.508 649 164.732 48.571"><g data-name="section-1-btn-playstore@3x"><path d="M356.139 697.57H203.608c-3.352 0-6.1-2.734-6.1-6.072v-36.426c0-3.339 2.747-6.072 6.101-6.072h152.53c3.354 0 6.101 2.734 6.101 6.072v36.426c0 3.34-2.747 6.073-6.101 6.073Z" fill-rule="evenodd" data-name="Path 34"/><g data-name="Path 36"><path d="M255.369 661.438c0 1.014-.306 1.827-.907 2.432-.69.718-1.59 1.08-2.693 1.08-1.055 0-1.953-.368-2.693-1.091-.74-.735-1.109-1.637-1.109-2.716 0-1.08.37-1.98 1.109-2.709a3.692 3.692 0 0 1 2.693-1.097c.524 0 1.024.107 1.502.307.476.202.863.475 1.144.813l-.638.64c-.49-.576-1.156-.86-2.008-.86a2.8 2.8 0 0 0-2.001.807c-.56.54-.84 1.24-.84 2.1 0 .857.28 1.563.84 2.104.566.533 1.232.806 2 .806.816 0 1.503-.273 2.045-.813.356-.356.56-.848.612-1.477h-2.656v-.877h3.544c.043.19.056.375.056.551Zm5.622-3.04h-3.329v2.306h3.002v.878h-3.002v2.307h3.33v.893h-4.272v-7.28h4.271v.896Zm3.97 6.384h-.942v-6.384h-2.042v-.895h5.029v.895h-2.044v6.384Zm5.684 0v-7.28h.94v7.28h-.94Zm5.112 0h-.935v-6.384h-2.05v-.895h5.035v.895h-2.05v6.384Zm11.57-.936c-.721.736-1.614 1.104-2.68 1.104-1.073 0-1.966-.368-2.688-1.104-.721-.735-1.079-1.637-1.079-2.703 0-1.067.358-1.97 1.079-2.704.72-.736 1.615-1.102 2.687-1.102 1.059 0 1.954.366 2.676 1.108.725.741 1.083 1.637 1.083 2.697 0 1.067-.358 1.97-1.077 2.704Zm-4.671-.61c.541.545 1.203.818 1.99.818.782 0 1.447-.273 1.984-.819.542-.544.816-1.244.816-2.092 0-.849-.274-1.548-.816-2.093a2.685 2.685 0 0 0-1.984-.819c-.787 0-1.449.274-1.99.82-.542.544-.817 1.243-.817 2.091 0 .85.275 1.55.817 2.094Zm7.072 1.546v-7.28h1.144l3.558 5.662h.04l-.04-1.4v-4.261h.94v7.28h-.982l-3.725-5.94h-.041l.041 1.404v4.535h-.935Z" fill="#fff" fill-rule="evenodd"/><path d="M255.369 661.438c0 1.014-.306 1.827-.907 2.432-.69.718-1.59 1.08-2.693 1.08-1.055 0-1.953-.368-2.693-1.091-.74-.735-1.109-1.637-1.109-2.716 0-1.08.37-1.98 1.109-2.709a3.692 3.692 0 0 1 2.693-1.097c.524 0 1.024.107 1.502.307.476.202.863.475 1.144.813l-.638.64c-.49-.576-1.156-.86-2.008-.86a2.8 2.8 0 0 0-2.001.807c-.56.54-.84 1.24-.84 2.1 0 .857.28 1.563.84 2.104.566.533 1.232.806 2 .806.816 0 1.503-.273 2.045-.813.356-.356.56-.848.612-1.477h-2.656v-.877h3.544c.043.19.056.375.056.551Zm5.622-3.04h-3.329v2.306h3.002v.878h-3.002v2.307h3.33v.893h-4.272v-7.28h4.271v.896Zm3.97 6.384h-.942v-6.384h-2.042v-.895h5.029v.895h-2.044v6.384Zm5.684 0v-7.28h.94v7.28h-.94Zm5.112 0h-.935v-6.384h-2.05v-.895h5.035v.895h-2.05v6.384Zm11.57-.936c-.721.736-1.614 1.104-2.68 1.104-1.073 0-1.966-.368-2.688-1.104-.721-.735-1.079-1.637-1.079-2.703 0-1.067.358-1.97 1.079-2.704.72-.736 1.615-1.102 2.687-1.102 1.059 0 1.954.366 2.676 1.108.725.741 1.083 1.637 1.083 2.697 0 1.067-.358 1.97-1.077 2.704Zm-4.671-.61c.541.545 1.203.818 1.99.818.782 0 1.447-.273 1.984-.819.542-.544.816-1.244.816-2.092 0-.849-.274-1.548-.816-2.093a2.685 2.685 0 0 0-1.984-.819c-.787 0-1.449.274-1.99.82-.542.544-.817 1.243-.817 2.091 0 .85.275 1.55.817 2.094Zm7.072 1.546v-7.28h1.144l3.558 5.662h.04l-.04-1.4v-4.261h.94v7.28h-.982l-3.725-5.94h-.041l.041 1.404v4.535h-.935Z" stroke-linejoin="round" stroke-linecap="round" stroke-width=".562" stroke="#fff" fill="transparent"/></g><path d="M280.648 675.414c-2.865 0-5.206 2.17-5.206 5.165 0 2.97 2.34 5.163 5.206 5.163 2.873 0 5.214-2.192 5.214-5.163 0-2.996-2.34-5.167-5.214-5.167Zm0 8.295c-1.572 0-2.924-1.292-2.924-3.13 0-1.863 1.352-3.132 2.924-3.132 1.573 0 2.932 1.27 2.932 3.132 0 1.838-1.36 3.13-2.932 3.13Zm-11.362-8.295c-2.871 0-5.206 2.17-5.206 5.165 0 2.97 2.335 5.163 5.206 5.163 2.872 0 5.208-2.192 5.208-5.163 0-2.996-2.336-5.167-5.208-5.167Zm0 8.295c-1.574 0-2.93-1.292-2.93-3.13 0-1.863 1.356-3.132 2.93-3.132 1.573 0 2.926 1.27 2.926 3.132 0 1.838-1.353 3.13-2.926 3.13Zm-13.52-6.713v2.195h5.267c-.154 1.226-.566 2.128-1.197 2.756-.769.76-1.966 1.602-4.07 1.602-3.241 0-5.779-2.604-5.779-5.828 0-3.226 2.538-5.83 5.78-5.83a5.607 5.607 0 0 1 3.97 1.566l1.553-1.546c-1.317-1.252-3.067-2.212-5.523-2.212-4.445 0-8.18 3.599-8.18 8.022s3.735 8.021 8.18 8.021c2.402 0 4.206-.783 5.625-2.253 1.454-1.446 1.906-3.48 1.906-5.122 0-.51-.042-.979-.118-1.37h-7.413Zm55.286 1.701c-.428-1.154-1.751-3.283-4.444-3.283-2.67 0-4.891 2.091-4.891 5.165 0 2.893 2.198 5.163 5.147 5.163 2.384 0 3.76-1.446 4.326-2.29l-1.77-1.171c-.59.857-1.394 1.428-2.556 1.428-1.154 0-1.983-.527-2.514-1.565l6.943-2.858-.24-.589Zm-7.077 1.72c-.06-1.99 1.555-3.011 2.71-3.011.907 0 1.676.45 1.932 1.096l-4.642 1.915Zm-5.642 5.01h2.281V670.25h-2.28v15.177Zm-3.737-8.863h-.076c-.512-.605-1.49-1.15-2.729-1.15-2.6 0-4.976 2.27-4.976 5.18 0 2.895 2.377 5.148 4.976 5.148 1.239 0 2.217-.552 2.73-1.173h.075v.74c0 1.974-1.06 3.037-2.77 3.037-1.395 0-2.259-1.003-2.616-1.845l-1.984.824c.572 1.368 2.087 3.054 4.6 3.054 2.675 0 4.934-1.567 4.934-5.378v-9.274h-2.164v.837Zm-2.61 7.145c-1.572 0-2.889-1.31-2.889-3.113 0-1.82 1.317-3.15 2.89-3.15 1.55 0 2.772 1.33 2.772 3.15 0 1.802-1.223 3.113-2.773 3.113Zm29.75-13.46h-5.458v15.178h2.276v-5.75h3.181c2.528 0 5.007-1.82 5.007-4.715 0-2.893-2.485-4.712-5.007-4.712Zm.06 7.317h-3.242v-5.204h3.242c1.698 0 2.669 1.403 2.669 2.6 0 1.175-.97 2.604-2.67 2.604Zm14.067-2.181c-1.644 0-3.354.722-4.057 2.323l2.02.843c.434-.843 1.233-1.116 2.079-1.116 1.18 0 2.377.705 2.395 1.953v.159c-.412-.237-1.293-.588-2.378-.588-2.174 0-4.391 1.191-4.391 3.415 0 2.034 1.782 3.343 3.784 3.343 1.532 0 2.377-.687 2.907-1.487h.078v1.173h2.199v-5.821c0-2.692-2.02-4.197-4.637-4.197Zm-.275 8.316c-.743 0-1.781-.365-1.781-1.285 0-1.175 1.294-1.626 2.413-1.626 1.002 0 1.472.22 2.08.51a2.758 2.758 0 0 1-2.712 2.402Zm12.919-7.984-2.616 6.579h-.078l-2.704-6.579h-2.455l4.064 9.195-2.319 5.116h2.378l6.261-14.31h-2.533Zm-20.514 9.71h2.28V670.25h-2.28v15.177Z" fill="#fff" fill-rule="evenodd" data-name="Path 37"/><path d="M1.749-25.24c-.36.373-.567.955-.567 1.708V3.32c0 .753.208 1.335.567 1.708l.088.082L16.958-9.93v-.356L1.838-25.328l-.089.088Z" fill-rule="evenodd" fill="url(&quot;#a&quot;)" transform="translate(208.492 683.394)" data-name="Path 38"/><path d="M5.422 1.448.387-3.568v-.356L5.429-8.94l.113.066 5.969 3.379c1.705.96 1.705 2.538 0 3.503L5.54 1.382l-.119.066Z" fill-rule="evenodd" fill="url(&quot;#b&quot;)" transform="translate(225.063 677.031)" data-name="Path 39"/><path d="M20.785-8.122 15.63-13.25.422 1.887c.565.592 1.486.663 2.537.072l17.824-10.08" fill-rule="evenodd" fill="url(&quot;#c&quot;)" transform="translate(209.82 686.535)" data-name="Path 40"/><path d="M20.785-1.906 2.96-11.986c-1.05-.585-1.973-.515-2.539.078l15.21 15.13 5.154-5.128Z" fill-rule="evenodd" fill="url(&quot;#d&quot;)" transform="translate(209.82 670.063)" data-name="Path 41"/></g><defs><linearGradient x1=".915" y1=".95" x2="-.383" y2=".281" id="a"><stop stop-color="#00a0ff" offset="0"/><stop stop-color="#00a1ff" offset=".007"/><stop stop-color="#00beff" offset=".26"/><stop stop-color="#00d2ff" offset=".512"/><stop stop-color="#00dfff" offset=".76"/><stop stop-color="#00e3ff" offset="1"/></linearGradient><linearGradient x1="1.076" y1=".5" x2="-1.305" y2=".5" id="b"><stop stop-color="#ffe000" offset="0"/><stop stop-color="#ffbd00" offset=".409"/><stop stop-color="orange" offset=".775"/><stop stop-color="#ff9c00" offset="1"/></linearGradient><linearGradient x1=".862" y1="-.179" x2="-.501" y2="-1.948" id="c"><stop stop-color="#ff3a44" offset="0"/><stop stop-color="#c31162" offset="1"/></linearGradient><linearGradient x1="-.188" y1="2.542" x2=".421" y2="1.751" id="d"><stop stop-color="#32a071" offset="0"/><stop stop-color="#2da771" offset=".068"/><stop stop-color="#15cf74" offset=".476"/><stop stop-color="#06e775" offset=".801"/><stop stop-color="#00f076" offset="1"/></linearGradient></defs></svg>