<svg xmlns="http://www.w3.org/2000/svg" width="36" height="36" viewBox="26 8.188 36 36"><g data-name="Group 2247"><path d="M44 8.188a18 18 0 1 1 0 36 18 18 0 0 1 0-36Z" fill="#de4a4d" fill-rule="evenodd" data-name="Path 6439"/><path d="m39.593 27.842-.555 2.06-2.017.042a7.943 7.943 0 0 1-.055-7.403l1.796.333.788 1.785a4.731 4.731 0 0 0 .044 3.186l-.001-.003Z" fill="#fff" fill-rule="evenodd" data-name="Path 6440"/><path d="M51.789 24.702a7.926 7.926 0 0 1-2.827 7.665l-2.262-.11-.32-1.997a4.725 4.725 0 0 0 2.028-2.426h-4.24v-3.137h7.62v.005Z" fill="#fff" fill-rule="evenodd" data-name="Path 6441"/><path d="M48.965 32.364a7.931 7.931 0 0 1-11.947-2.425l2.57-2.107a4.714 4.714 0 0 0 6.795 2.414l2.582 2.118Z" fill="#fff" fill-rule="evenodd" data-name="Path 6442"/><path d="m49.061 20.09-2.568 2.107a4.716 4.716 0 0 0-6.95 2.468l-2.584-2.118A7.93 7.93 0 0 1 49.06 20.09Z" fill="#fff" fill-rule="evenodd" data-name="Path 6443"/></g></svg>